<svg width="52" height="60" fill="none" xmlns="http://www.w3.org/2000/svg"><mask id="a" fill="#fff"><path fill-rule="evenodd" clip-rule="evenodd" d="M27.335 54.539a21.07 21.07 0 000-42.004V54.54zm0-1.715a19.362 19.362 0 000-38.574v38.574z"/></mask><path fill-rule="evenodd" clip-rule="evenodd" d="M27.335 54.539a21.07 21.07 0 000-42.004V54.54zm0-1.715a19.362 19.362 0 000-38.574v38.574z" fill="#000"/><path d="M27.335 54.539h-3v3.254l3.243-.264-.243-2.99zm6.355-1.535l-1.148-2.772 1.148 2.772zm6.836-4.568l2.121 2.122-2.121-2.122zm4.567-6.836l2.772 1.149-2.772-1.149zM33.69 14.07l-1.148 2.772 1.148-2.772zm-3.355-1.535a3 3 0 00-6 0h6zm-3 40.289h-3 3zm5.701-1.398l-1.148-2.772 1.148 2.772zm6.282-4.198l2.121 2.122-2.121-2.122zm4.197-6.281l-2.772-1.148 2.772 1.148zm0-14.82l-2.772 1.148 2.772-1.148zM33.036 15.648l1.148-2.771-1.148 2.771zm-5.701-1.398l.265-2.988-3.265-.29v3.278h3zm.243 43.279a24.07 24.07 0 007.26-1.753l-2.296-5.544a18.063 18.063 0 01-5.45 1.316l.486 5.98zm7.26-1.753a24.073 24.073 0 007.81-5.218l-4.243-4.243a18.07 18.07 0 01-5.863 3.917l2.296 5.544zm7.81-5.218a24.072 24.072 0 005.217-7.81l-5.543-2.295a18.07 18.07 0 01-3.917 5.862l4.242 4.243zm5.217-7.81a24.071 24.071 0 001.832-9.211h-6a18.07 18.07 0 01-1.375 6.916l5.543 2.296zm1.832-9.211a24.07 24.07 0 00-1.832-9.212l-5.543 2.297a18.07 18.07 0 011.375 6.915h6zm-1.832-9.212a24.071 24.071 0 00-5.218-7.809l-4.242 4.243a18.07 18.07 0 013.917 5.863l5.543-2.297zm-5.218-7.809a24.072 24.072 0 00-7.809-5.218l-2.296 5.544a18.07 18.07 0 015.863 3.917l4.242-4.243zm-7.809-5.218a24.071 24.071 0 00-7.26-1.753l-.486 5.98c1.87.153 3.71.596 5.45 1.317l2.296-5.544zm-7.26-1.753c2.747 3.234-.486 5.98-.486 5.98s-2.747-3.233.486-5.98l-.486 5.98c3.233-2.746.486-5.98.486-5.98s-3.233 2.747-.486 5.98l.486-5.98zm-3.243 2.99v40.289h6V12.535h-6zm0 40.289v1.715h6v-1.715h-6zm3.265 2.988c2.26-.2 4.48-.743 6.584-1.615l-2.296-5.543a16.364 16.364 0 01-4.818 1.182l.53 5.976zm6.584-1.615a22.364 22.364 0 007.255-4.847l-4.242-4.243a16.364 16.364 0 01-5.309 3.547l2.296 5.543zm7.255-4.847a22.364 22.364 0 004.848-7.255l-5.544-2.296a16.362 16.362 0 01-3.546 5.308l4.242 4.243zm4.848-7.255a22.363 22.363 0 001.702-8.558h-6c0 2.149-.423 4.276-1.245 6.262l5.543 2.296zm1.702-8.558c0-2.937-.578-5.845-1.702-8.558l-5.544 2.296a16.362 16.362 0 011.246 6.262h6zm-1.702-8.558a22.364 22.364 0 00-4.848-7.255l-4.242 4.243a16.362 16.362 0 013.546 5.308l5.544-2.296zm-4.848-7.255a22.364 22.364 0 00-7.255-4.847l-2.296 5.543a16.363 16.363 0 015.309 3.547l4.242-4.243zm-7.255-4.847a22.363 22.363 0 00-6.584-1.615l-.53 5.976c1.654.147 3.279.544 4.818 1.182l2.296-5.543zm-9.849 1.373v38.574h6V14.25h-6z" fill="url(#paint0_linear_510_1206)" mask="url(#a)"/><path d="M26.196 17.091V33.78l7.973 7.23" stroke="url(#paint1_linear_510_1206)" stroke-width="3" stroke-linecap="round"/><path fill="#000" stroke="url(#paint2_linear_510_1206)" stroke-width=".854" stroke-linecap="round" d="M18.081 14.671h.854v.854h-.854z"/><path fill="#000" stroke="url(#paint3_linear_510_1206)" stroke-width=".854" stroke-linecap="round" d="M10.109 20.935h.854v.854h-.854z"/><path fill="#000" stroke="url(#paint4_linear_510_1206)" stroke-width=".854" stroke-linecap="round" d="M6.121 33.464h.854v.854h-.854z"/><path fill="#000" stroke="url(#paint5_linear_510_1206)" stroke-width=".854" stroke-linecap="round" d="M18.081 50.549h.854v.854h-.854z"/><path fill="#000" stroke="url(#paint6_linear_510_1206)" stroke-width=".854" stroke-linecap="round" d="M10.109 44.854h.854v.854h-.854z"/><path d="M26.196 9.119V5.417m0 0H22.21V5a3 3 0 013-3h1.688a3 3 0 013 3v.417h-3.702z" stroke="url(#paint7_linear_510_1206)" stroke-width="3" stroke-linecap="round"/><path d="M39.33 12.932l1.708-2.96m-2.883-1.708l5.842 3.417" stroke="url(#paint8_linear_510_1206)" stroke-width="3" stroke-linecap="round"/><path d="M13.229 12.362L11.52 9.403m2.882-1.708L8.56 11.112" stroke="url(#paint9_linear_510_1206)" stroke-width="3" stroke-linecap="round"/><circle cx="25.627" cy="33.606" r="24.127" stroke="url(#paint10_linear_510_1206)" stroke-width="3" stroke-linecap="round"/><defs><linearGradient id="paint0_linear_510_1206" x1="35.38" y1="12.535" x2="59.663" y2="52.364" gradientUnits="userSpaceOnUse"><stop stop-color="#FFDA58"/><stop offset="1" stop-color="#E0AF32"/></linearGradient><linearGradient id="paint1_linear_510_1206" x1="29.509" y1="17.091" x2="44.84" y2="35.275" gradientUnits="userSpaceOnUse"><stop stop-color="#FFDA58"/><stop offset="1" stop-color="#E0AF32"/></linearGradient><linearGradient id="paint2_linear_510_1206" x1="18.364" y1="14.244" x2="18.943" y2="16.303" gradientUnits="userSpaceOnUse"><stop stop-color="#FFDA58"/><stop offset="1" stop-color="#E0AF32"/></linearGradient><linearGradient id="paint3_linear_510_1206" x1="10.392" y1="20.508" x2="10.97" y2="22.568" gradientUnits="userSpaceOnUse"><stop stop-color="#FFDA58"/><stop offset="1" stop-color="#E0AF32"/></linearGradient><linearGradient id="paint4_linear_510_1206" x1="6.404" y1="33.037" x2="6.983" y2="35.096" gradientUnits="userSpaceOnUse"><stop stop-color="#FFDA58"/><stop offset="1" stop-color="#E0AF32"/></linearGradient><linearGradient id="paint5_linear_510_1206" x1="18.364" y1="50.122" x2="18.943" y2="52.181" gradientUnits="userSpaceOnUse"><stop stop-color="#FFDA58"/><stop offset="1" stop-color="#E0AF32"/></linearGradient><linearGradient id="paint6_linear_510_1206" x1="10.392" y1="44.427" x2="10.97" y2="46.486" gradientUnits="userSpaceOnUse"><stop stop-color="#FFDA58"/><stop offset="1" stop-color="#E0AF32"/></linearGradient><linearGradient id="paint7_linear_510_1206" x1="25.404" y1="2" x2="27.661" y2="10.672" gradientUnits="userSpaceOnUse"><stop stop-color="#FFDA58"/><stop offset="1" stop-color="#E0AF32"/></linearGradient><linearGradient id="paint8_linear_510_1206" x1="40.59" y1="9.67" x2="38.936" y2="13.8" gradientUnits="userSpaceOnUse"><stop stop-color="#FFDA58"/><stop offset="1" stop-color="#E0AF32"/></linearGradient><linearGradient id="paint9_linear_510_1206" x1="11.968" y1="9.101" x2="13.623" y2="13.23" gradientUnits="userSpaceOnUse"><stop stop-color="#FFDA58"/><stop offset="1" stop-color="#E0AF32"/></linearGradient><linearGradient id="paint10_linear_510_1206" x1="21.296" y1="7.979" x2="38.66" y2="69.765" gradientUnits="userSpaceOnUse"><stop stop-color="#FFDA58"/><stop offset="1" stop-color="#E0AF32"/></linearGradient></defs></svg>