<svg width="20" height="13" fill="none" xmlns="http://www.w3.org/2000/svg"><path d="M.85 1.043C3.414 3.035 7.914 6.539 9.237 7.63a.877.877 0 00.566.223.877.877 0 00.564-.221c1.324-1.094 5.824-4.598 8.389-6.59a.337.337 0 00.055-.493A1.6 1.6 0 0017.589 0H2.017A1.6 1.6 0 00.795.55a.337.337 0 00.055.493z" fill="#EDC542"/><path d="M18.92 2.12a.415.415 0 00-.416.052c-2.844 2.21-6.474 5.045-7.616 5.989-.64.53-1.53.53-2.173 0C7.498 7.153 3.422 3.975 1.1 2.17a.418.418 0 00-.415-.05.357.357 0 00-.226.323v8.978c0 .788.698 1.428 1.557 1.428h15.572c.86 0 1.557-.64 1.557-1.428V2.444a.356.356 0 00-.225-.324z" fill="#EDC542"/></svg>