<svg width="389" height="751" fill="none" xmlns="http://www.w3.org/2000/svg"><path d="M1 750c207.107 0 375-167.669 375-374.5S208.107 1 1 1" stroke="#fff" stroke-width="2" stroke-linecap="round"/><ellipse cx="143" cy="26.5" rx="13" ry="12.5" fill="#C4C4C4" fill-opacity=".3"/><ellipse cx="143" cy="724.5" rx="13" ry="12.5" fill="#C4C4C4" fill-opacity=".3"/><ellipse cx="376" cy="375.5" rx="13" ry="12.5" fill="#C4C4C4" fill-opacity=".3"/><circle cx="317.5" cy="171.5" r="12.5" fill="#C4C4C4" fill-opacity=".3"/><circle cx="317.5" cy="575.5" r="12.5" fill="#C4C4C4" fill-opacity=".3"/><ellipse cx="143" cy="724.5" rx="7" ry="6.5" fill="#fff"/><ellipse cx="143" cy="724.5" rx="7" ry="6.5" fill="url(#paint0_linear_260_106)"/><ellipse cx="143" cy="724.5" rx="7" ry="6.5" fill="url(#paint1_linear_260_106)"/><ellipse cx="317.5" cy="575" rx="6.5" ry="7" fill="#fff"/><ellipse cx="317.5" cy="575" rx="6.5" ry="7" fill="url(#paint2_linear_260_106)"/><ellipse cx="317.5" cy="575" rx="6.5" ry="7" fill="url(#paint3_linear_260_106)"/><circle cx="376" cy="375" r="7" fill="#fff"/><circle cx="376" cy="375" r="7" fill="url(#paint4_linear_260_106)"/><circle cx="376" cy="375" r="7" fill="url(#paint5_linear_260_106)"/><ellipse cx="142.5" cy="27" rx="6.5" ry="7" fill="#fff"/><ellipse cx="142.5" cy="27" rx="6.5" ry="7" fill="url(#paint6_linear_260_106)"/><ellipse cx="142.5" cy="27" rx="6.5" ry="7" fill="url(#paint7_linear_260_106)"/><ellipse cx="317.5" cy="171" rx="6.5" ry="7" fill="#fff"/><ellipse cx="317.5" cy="171" rx="6.5" ry="7" fill="url(#paint8_linear_260_106)"/><ellipse cx="317.5" cy="171" rx="6.5" ry="7" fill="url(#paint9_linear_260_106)"/><defs><linearGradient id="paint0_linear_260_106" x1="141.817" y1="718" x2="145.948" y2="733.831" gradientUnits="userSpaceOnUse"><stop stop-color="#FFDA58"/><stop offset="1" stop-color="#B68300"/></linearGradient><linearGradient id="paint1_linear_260_106" x1="141.817" y1="718" x2="145.948" y2="733.831" gradientUnits="userSpaceOnUse"><stop stop-color="#FFDA58"/><stop offset="1" stop-color="#B68300"/></linearGradient><linearGradient id="paint2_linear_260_106" x1="316.401" y1="568" x2="321.45" y2="584.682" gradientUnits="userSpaceOnUse"><stop stop-color="#FFDA58"/><stop offset="1" stop-color="#B68300"/></linearGradient><linearGradient id="paint3_linear_260_106" x1="316.401" y1="568" x2="321.45" y2="584.682" gradientUnits="userSpaceOnUse"><stop stop-color="#FFDA58"/><stop offset="1" stop-color="#B68300"/></linearGradient><linearGradient id="paint4_linear_260_106" x1="374.817" y1="368" x2="379.56" y2="384.877" gradientUnits="userSpaceOnUse"><stop stop-color="#FFDA58"/><stop offset="1" stop-color="#B68300"/></linearGradient><linearGradient id="paint5_linear_260_106" x1="374.817" y1="368" x2="379.56" y2="384.877" gradientUnits="userSpaceOnUse"><stop stop-color="#FFDA58"/><stop offset="1" stop-color="#B68300"/></linearGradient><linearGradient id="paint6_linear_260_106" x1="141.401" y1="20" x2="146.45" y2="36.682" gradientUnits="userSpaceOnUse"><stop stop-color="#FFDA58"/><stop offset="1" stop-color="#B68300"/></linearGradient><linearGradient id="paint7_linear_260_106" x1="141.401" y1="20" x2="146.45" y2="36.682" gradientUnits="userSpaceOnUse"><stop stop-color="#FFDA58"/><stop offset="1" stop-color="#B68300"/></linearGradient><linearGradient id="paint8_linear_260_106" x1="316.401" y1="164" x2="321.45" y2="180.682" gradientUnits="userSpaceOnUse"><stop stop-color="#FFDA58"/><stop offset="1" stop-color="#B68300"/></linearGradient><linearGradient id="paint9_linear_260_106" x1="316.401" y1="164" x2="321.45" y2="180.682" gradientUnits="userSpaceOnUse"><stop stop-color="#FFDA58"/><stop offset="1" stop-color="#B68300"/></linearGradient></defs></svg>