<svg width="262" height="262" fill="none" xmlns="http://www.w3.org/2000/svg"><path d="M43.097 231.35c.42.133.746.35.98.65.24.293.36.64.36 1.04 0 .42-.137.787-.41 1.1-.274.307-.64.543-1.1.71a4.28 4.28 0 01-1.49.25c-.467 0-.937-.063-1.41-.19a4.77 4.77 0 01-1.3-.59l.42-.95c.306.207.646.367 1.02.48.373.107.743.16 1.11.16.526 0 .963-.103 1.31-.31.353-.207.53-.49.53-.85a.777.777 0 00-.38-.7c-.254-.16-.604-.24-1.05-.24h-1.63v-1.02h1.53c.386 0 .69-.08.91-.24.22-.16.33-.377.33-.65 0-.327-.15-.58-.45-.76-.294-.18-.67-.27-1.13-.27-.314 0-.637.047-.97.14a3.66 3.66 0 00-.94.39l-.41-1.05c.36-.193.74-.337 1.14-.43.406-.1.81-.15 1.21-.15.52 0 .996.08 1.43.24.44.16.79.39 1.05.69.26.293.39.64.39 1.04 0 .347-.094.65-.28.91a1.79 1.79 0 01-.77.6z" fill="url(#paint0_linear_510_635)"/><path d="M47.76 229.6c.787 0 1.387.19 1.8.57.42.373.63.94.63 1.7V235h-1.18v-.65a1.486 1.486 0 01-.66.54c-.28.12-.62.18-1.02.18s-.75-.067-1.05-.2a1.71 1.71 0 01-.7-.57 1.492 1.492 0 01-.24-.83c0-.48.177-.863.53-1.15.36-.293.924-.44 1.69-.44h1.38v-.08c0-.373-.113-.66-.34-.86-.22-.2-.55-.3-.99-.3-.3 0-.596.047-.89.14-.286.093-.53.223-.73.39l-.49-.91c.28-.213.617-.377 1.01-.49a4.51 4.51 0 011.25-.17zm-.17 4.56c.314 0 .59-.07.83-.21.247-.147.42-.353.52-.62v-.62h-1.29c-.72 0-1.08.237-1.08.71 0 .227.09.407.27.54.18.133.43.2.75.2z" fill="url(#paint1_linear_510_635)"/><path d="M51.737 229.66h1.25v3.52l2.95-3.52h1.14V235h-1.25v-3.52l-2.94 3.52h-1.15v-5.34zm2.59-.63c-.54 0-.953-.123-1.24-.37-.28-.253-.423-.62-.43-1.1h.83c.007.24.08.43.22.57.147.14.35.21.61.21.254 0 .454-.07.6-.21.154-.14.234-.33.24-.57h.85c-.006.48-.153.847-.44 1.1-.286.247-.7.37-1.24.37z" fill="url(#paint2_linear_510_635)"/><path d="M64.009 235v-3.54l-1.8 2.98h-.54l-1.77-2.99V235h-1.14v-5.34h1.31l1.9 3.34 1.99-3.34h1.17l.01 5.34h-1.13z" fill="url(#paint3_linear_510_635)"/><path d="M69.416 231.42c.68 0 1.2.153 1.56.46.36.307.54.74.54 1.3 0 .587-.2 1.04-.6 1.36-.394.32-.954.477-1.68.47l-2.42-.01v-5.34h1.25v1.75l1.35.01zm2.79-1.76h1.25V235h-1.25v-5.34zm-3.08 4.43c.366.007.646-.07.84-.23.193-.16.29-.393.29-.7 0-.3-.094-.52-.28-.66-.187-.14-.47-.213-.85-.22l-1.06-.01v1.81l1.06.01z" fill="url(#paint4_linear_510_635)"/><path d="M83.02 229.66V235h-1.24v-4.28h-2.63V235H77.9v-5.34h5.12z" fill="url(#paint5_linear_510_635)"/><path d="M87.086 235.07c-.54 0-1.026-.117-1.46-.35a2.597 2.597 0 01-1.02-.97 2.81 2.81 0 01-.36-1.42c0-.527.12-.997.36-1.41a2.597 2.597 0 011.02-.97c.434-.233.92-.35 1.46-.35.547 0 1.037.117 1.47.35.434.233.77.557 1.01.97.247.413.37.883.37 1.41 0 .527-.123 1-.37 1.42-.24.413-.576.737-1.01.97-.433.233-.923.35-1.47.35zm0-1.07c.46 0 .84-.153 1.14-.46.3-.307.45-.71.45-1.21s-.15-.903-.45-1.21c-.3-.307-.68-.46-1.14-.46-.46 0-.84.153-1.14.46-.293.307-.44.71-.44 1.21s.147.903.44 1.21c.3.307.68.46 1.14.46z" fill="url(#paint6_linear_510_635)"/><path d="M96.813 233.94v2.25h-1.17V235h-4.12v1.19h-1.16v-2.25h.25c.34-.013.57-.23.69-.65.126-.427.21-1.027.25-1.8l.07-1.83h4.4v4.28h.79zm-4.12-2.36a10.882 10.882 0 01-.15 1.5c-.074.387-.207.673-.4.86h2.63v-3.22h-2.05l-.03.86z" fill="url(#paint7_linear_510_635)"/><path d="M103.883 232.22c.333.093.59.247.77.46.186.207.28.457.28.75 0 .327-.11.617-.33.87-.22.247-.524.44-.91.58-.387.14-.827.21-1.32.21-.414 0-.817-.047-1.21-.14-.394-.1-.75-.24-1.07-.42l.36-.93c.26.147.553.26.88.34.326.08.653.12.98.12.42 0 .746-.063.98-.19.24-.133.36-.313.36-.54a.534.534 0 00-.28-.48c-.18-.113-.437-.17-.77-.17h-1.04v-.84h.94c.313 0 .556-.053.73-.16a.5.5 0 00.27-.45c0-.193-.107-.347-.32-.46-.214-.113-.507-.17-.88-.17-.534 0-1.097.13-1.69.39l-.32-.92c.7-.327 1.406-.49 2.12-.49.453 0 .86.063 1.22.19.36.12.64.293.84.52a1.115 1.115 0 01.07 1.46c-.16.2-.38.357-.66.47z" fill="url(#paint8_linear_510_635)"/><path d="M108.22 229.6c.786 0 1.386.19 1.8.57.42.373.63.94.63 1.7V235h-1.18v-.65a1.493 1.493 0 01-.66.54c-.28.12-.62.18-1.02.18s-.75-.067-1.05-.2c-.3-.14-.534-.33-.7-.57a1.492 1.492 0 01-.24-.83c0-.48.176-.863.53-1.15.36-.293.923-.44 1.69-.44h1.38v-.08c0-.373-.114-.66-.34-.86-.22-.2-.55-.3-.99-.3-.3 0-.597.047-.89.14-.287.093-.53.223-.73.39l-.49-.91c.28-.213.616-.377 1.01-.49.393-.113.81-.17 1.25-.17zm-.17 4.56c.313 0 .59-.07.83-.21a1.19 1.19 0 00.52-.62v-.62h-1.29c-.72 0-1.08.237-1.08.71 0 .227.09.407.27.54.18.133.43.2.75.2z" fill="url(#paint9_linear_510_635)"/><path d="M117.036 229.66V235h-1.25v-4.28h-2l-.05 1.06c-.033.707-.1 1.3-.2 1.78-.093.473-.256.85-.49 1.13-.226.273-.54.41-.94.41-.186 0-.416-.037-.69-.11l.06-1.05c.094.02.174.03.24.03.254 0 .444-.1.57-.3.127-.207.207-.45.24-.73.04-.287.074-.693.1-1.22l.09-2.06h4.32z" fill="url(#paint10_linear_510_635)"/><path d="M121.1 235.07c-.54 0-1.027-.117-1.46-.35a2.602 2.602 0 01-1.02-.97 2.81 2.81 0 01-.36-1.42c0-.527.12-.997.36-1.41a2.602 2.602 0 011.02-.97c.433-.233.92-.35 1.46-.35.547 0 1.037.117 1.47.35.433.233.77.557 1.01.97.247.413.37.883.37 1.41 0 .527-.123 1-.37 1.42a2.53 2.53 0 01-1.01.97c-.433.233-.923.35-1.47.35zm0-1.07c.46 0 .84-.153 1.14-.46.3-.307.45-.71.45-1.21s-.15-.903-.45-1.21c-.3-.307-.68-.46-1.14-.46-.46 0-.84.153-1.14.46-.293.307-.44.71-.44 1.21s.147.903.44 1.21c.3.307.68.46 1.14.46z" fill="url(#paint11_linear_510_635)"/><path d="M129.285 230.72h-2.85V235h-1.25v-5.34h4.1v1.06z" fill="url(#paint12_linear_510_635)"/><path d="M132.958 229.66h1.25v2.17h2.69v-2.17h1.25V235h-1.25v-2.11h-2.69V235h-1.25v-5.34z" fill="url(#paint13_linear_510_635)"/><path d="M144.823 232.36c0 .087-.006.21-.02.37h-4.19c.074.393.264.707.57.94.314.227.7.34 1.16.34.587 0 1.07-.193 1.45-.58l.67.77c-.24.287-.543.503-.91.65-.366.147-.78.22-1.24.22-.586 0-1.103-.117-1.55-.35a2.571 2.571 0 01-1.04-.97 2.81 2.81 0 01-.36-1.42c0-.52.117-.987.35-1.4.24-.42.57-.747.99-.98a2.88 2.88 0 011.42-.35c.52 0 .984.117 1.39.35.414.227.734.55.96.97.234.413.35.893.35 1.44zm-2.7-1.76c-.4 0-.74.12-1.02.36-.273.233-.44.547-.5.94h3.03a1.468 1.468 0 00-.49-.94c-.273-.24-.613-.36-1.02-.36z" fill="url(#paint14_linear_510_635)"/><path d="M151.822 233.94v2.25h-1.17V235h-4.12v1.19h-1.16v-2.25h.25c.34-.013.57-.23.69-.65.127-.427.21-1.027.25-1.8l.07-1.83h4.4v4.28h.79zm-4.12-2.36a10.667 10.667 0 01-.15 1.5c-.073.387-.206.673-.4.86h2.63v-3.22h-2.05l-.03.86z" fill="url(#paint15_linear_510_635)"/><path d="M156.809 232.22c.66.2.99.627.99 1.28 0 .48-.18.85-.54 1.11-.36.26-.894.39-1.6.39h-2.72v-5.34h2.61c.653 0 1.163.12 1.53.36.366.24.55.58.55 1.02 0 .273-.074.51-.22.71-.14.2-.34.357-.6.47zm-2.68-.33h1.31c.646 0 .97-.223.97-.67 0-.433-.324-.65-.97-.65h-1.31v1.32zm1.43 2.2c.686 0 1.03-.223 1.03-.67 0-.233-.08-.407-.24-.52-.16-.12-.41-.18-.75-.18h-1.47v1.37h1.43z" fill="url(#paint16_linear_510_635)"/><path d="M159.13 229.66h1.25v3.52l2.95-3.52h1.14V235h-1.25v-3.52l-2.94 3.52h-1.15v-5.34z" fill="url(#paint17_linear_510_635)"/><path d="M171.222 232.86h-.9V235h-1.24v-2.14h-.9l-1.3 2.14h-1.48l1.75-2.76-1.62-2.58h1.33l1.3 2.16h.92v-2.16h1.24v2.16h.91l1.31-2.16h1.33l-1.62 2.58 1.76 2.76h-1.49l-1.3-2.14z" fill="url(#paint18_linear_510_635)"/><path d="M174.941 229.66h1.25v3.52l2.95-3.52h1.14V235h-1.25v-3.52l-2.94 3.52h-1.15v-5.34z" fill="url(#paint19_linear_510_635)"/><path d="M187.212 235v-3.54l-1.8 2.98h-.54l-1.77-2.99V235h-1.14v-5.34h1.31l1.9 3.34 1.99-3.34h1.17l.01 5.34h-1.13z" fill="url(#paint20_linear_510_635)"/><path d="M192.399 235.07c-.54 0-1.027-.117-1.46-.35a2.589 2.589 0 01-1.02-.97 2.81 2.81 0 01-.36-1.42c0-.527.12-.997.36-1.41a2.589 2.589 0 011.02-.97c.433-.233.92-.35 1.46-.35.546 0 1.036.117 1.47.35.433.233.77.557 1.01.97.246.413.37.883.37 1.41 0 .527-.124 1-.37 1.42a2.53 2.53 0 01-1.01.97c-.434.233-.924.35-1.47.35zm0-1.07c.46 0 .84-.153 1.14-.46.3-.307.45-.71.45-1.21s-.15-.903-.45-1.21c-.3-.307-.68-.46-1.14-.46-.46 0-.84.153-1.14.46-.294.307-.44.71-.44 1.21s.146.903.44 1.21c.3.307.68.46 1.14.46z" fill="url(#paint21_linear_510_635)"/><path d="M198.914 235.07c-.554 0-1.05-.117-1.49-.35a2.576 2.576 0 01-1.03-.97 2.747 2.747 0 01-.37-1.42c0-.527.123-.997.37-1.41a2.589 2.589 0 011.02-.97c.44-.233.94-.35 1.5-.35.526 0 .986.107 1.38.32.4.213.7.52.9.92l-.96.56a1.48 1.48 0 00-.58-.55 1.51 1.51 0 00-.75-.19c-.467 0-.854.153-1.16.46-.307.3-.46.703-.46 1.21s.15.913.45 1.22c.306.3.696.45 1.17.45.273 0 .523-.06.75-.18a1.56 1.56 0 00.58-.56l.96.56c-.207.4-.51.71-.91.93-.394.213-.85.32-1.37.32z" fill="url(#paint22_linear_510_635)"/><path d="M206.475 230.72h-1.87V235h-1.25v-4.28h-1.88v-1.06h5v1.06z" fill="url(#paint23_linear_510_635)"/><path d="M207.382 229.66h1.25v3.52l2.95-3.52h1.14V235h-1.25v-3.52l-2.94 3.52h-1.15v-5.34z" fill="url(#paint24_linear_510_635)"/><path d="M63.265 138.047V77.604h30.661m0 0v62.47m0-62.47V56.519h29.129m0 0v74.952m0-74.952V27h29.129v95.383m23.221-8.232c-26.062 9.84-45.992 15.462-88.918 28.113-13.475 3.971-31.452-7.245-33.797-14.056m0 0c-6.064 14.056 4.667 33.735 24.598 33.735 24.577 0 61.323-16.868 82.787-23.896M52.69 128.208c-2.922-8.487-2.246-20.917 3.81-28.208m59.115 76l64.39-22.491" stroke="#fff" stroke-width="5" stroke-linecap="round"/><path d="M63.265 138.047V77.604h30.661m0 0v62.47m0-62.47V56.519h29.129m0 0v74.952m0-74.952V27h29.129v95.383m23.221-8.232c-26.062 9.84-45.992 15.462-88.918 28.113-13.475 3.971-31.452-7.245-33.797-14.056m0 0c-6.064 14.056 4.667 33.735 24.598 33.735 24.577 0 61.323-16.868 82.787-23.896M52.69 128.208c-2.922-8.487-2.246-20.917 3.81-28.208m59.115 76l64.39-22.491" stroke="url(#paint25_linear_510_635)" stroke-width="5" stroke-linecap="round"/><path d="M201.796 101.846l-34.195-.299a1 1 0 00-.912 1.431l11.793 24.711a1 1 0 001.639.246l22.403-24.413c.586-.639.138-1.669-.728-1.676z" fill="url(#paint26_linear_510_635)"/><path d="M206.76 140h-34.264a1 1 0 00-.924 1.382l10.82 26.149a1 1 0 001.669.286l23.444-26.149c.577-.644.12-1.668-.745-1.668z" fill="url(#paint27_linear_510_635)"/><g filter="url(#filter0_f_510_635)"><ellipse cx="123.649" cy="30.355" rx="6" ry="7.5" transform="rotate(-25.567 123.649 30.355)" fill="#fff" fill-opacity=".55"/></g><g filter="url(#filter1_f_510_635)"><ellipse cx="183.115" cy="103.801" rx="4.53" ry="17.045" transform="rotate(-90.91 183.115 103.801)" fill="#fff" fill-opacity=".55"/></g><g filter="url(#filter2_f_510_635)"><ellipse cx="188.21" cy="142.197" rx="4.53" ry="17.045" transform="rotate(-92.253 188.21 142.197)" fill="#fff" fill-opacity=".55"/></g><g filter="url(#filter3_f_510_635)"><circle cx="150" cy="27" r="6" fill="#fff" fill-opacity=".55"/></g><g filter="url(#filter4_f_510_635)"><circle cx="64" cy="80" r="6" fill="#fff" fill-opacity=".45"/></g><g filter="url(#filter5_f_510_635)"><ellipse cx="77" cy="76" rx="19" ry="2" fill="#fff" fill-opacity=".55"/></g><g filter="url(#filter6_f_510_635)"><ellipse cx="104" cy="55" rx="19" ry="2" fill="#fff" fill-opacity=".55"/></g><g filter="url(#filter7_d_510_635)" fill="#fff"><path d="M36.44 183.68c.667.027 1.52.053 2.56.08 1.04.027 2.08.04 3.12.04 1.307 0 2.547-.013 3.72-.04 1.174-.027 2-.04 2.48-.04 3.574 0 6.227.733 7.96 2.2 1.76 1.467 2.64 3.36 2.64 5.68 0 .96-.173 1.973-.52 3.04-.346 1.04-.946 2.013-1.8 2.92-.853.88-2.026 1.6-3.52 2.16-1.466.56-3.346.84-5.64.84h-4v-.8h3.6c1.68 0 2.96-.36 3.84-1.08.907-.72 1.507-1.667 1.8-2.84.32-1.173.48-2.44.48-3.8 0-2.533-.413-4.427-1.24-5.68-.826-1.253-2.253-1.88-4.28-1.88-1.093 0-1.813.227-2.16.68-.32.453-.48 1.373-.48 2.76v19.68c0 1.013.107 1.773.32 2.28.214.507.627.84 1.24 1 .614.16 1.494.253 2.64.28v.84a45.563 45.563 0 00-3-.08c-1.226-.027-2.493-.04-3.8-.04-1.12 0-2.2.013-3.24.04-1.04 0-1.946.027-2.72.08v-.8c.88-.053 1.534-.16 1.96-.32.454-.16.747-.48.88-.96.16-.48.24-1.2.24-2.16v-19.84c0-.987-.08-1.707-.24-2.16-.133-.48-.426-.8-.88-.96-.426-.187-1.08-.293-1.96-.32v-.8zm29.653 28.6c-1.147 0-2.12-.213-2.92-.64-.8-.453-1.4-1.053-1.8-1.8-.4-.773-.6-1.627-.6-2.56 0-1.147.266-2.08.8-2.8a5.658 5.658 0 012.04-1.76 15.794 15.794 0 012.68-1.12c.933-.32 1.813-.613 2.64-.88.826-.293 1.506-.627 2.04-1 .533-.373.8-.867.8-1.48v-2.92c0-.853-.134-1.547-.4-2.08-.24-.56-.614-.973-1.12-1.24-.48-.293-1.094-.44-1.84-.44-.56 0-1.147.08-1.76.24-.614.16-1.12.467-1.52.92.693.187 1.226.533 1.6 1.04.4.507.6 1.12.6 1.84 0 .827-.28 1.48-.84 1.96-.534.453-1.214.68-2.04.68-.88 0-1.547-.28-2-.84a3.022 3.022 0 01-.68-1.96c0-.747.186-1.36.56-1.84.373-.507.893-.96 1.56-1.36.666-.453 1.52-.813 2.56-1.08 1.04-.267 2.173-.4 3.4-.4 1.173 0 2.213.133 3.12.4.906.24 1.68.68 2.32 1.32.64.613 1.053 1.373 1.24 2.28.186.907.28 2.013.28 3.32v10.96c0 .667.08 1.147.24 1.44.16.267.413.4.76.4.266 0 .52-.067.76-.2s.506-.32.8-.56l.44.68c-.587.453-1.2.813-1.84 1.08-.64.267-1.414.4-2.32.4-.934 0-1.68-.133-2.24-.4a2.662 2.662 0 01-1.2-1.16c-.24-.507-.374-1.107-.4-1.8-.64 1.067-1.427 1.893-2.36 2.48-.934.587-2.054.88-3.36.88zm2.4-2.24a3.16 3.16 0 001.76-.52c.56-.347 1.066-.867 1.52-1.56v-8.08c-.267.4-.654.76-1.16 1.08-.48.32-1 .64-1.56.96-.56.32-1.094.693-1.6 1.12-.48.4-.894.907-1.24 1.52-.32.587-.48 1.347-.48 2.28 0 1.04.253 1.84.76 2.4.506.533 1.173.8 2 .8zm21.629-19.28c1.307 0 2.454.187 3.44.56.987.373 1.76.907 2.32 1.6.587.693.88 1.547.88 2.56 0 1.173-.373 2.133-1.12 2.88-.72.72-1.64 1.293-2.76 1.72-1.093.4-2.213.693-3.36.88 1.68.027 3.147.24 4.4.64 1.254.373 2.227.947 2.92 1.72.694.747 1.04 1.72 1.04 2.92 0 1.28-.413 2.4-1.24 3.36-.8.933-1.92 1.667-3.36 2.2-1.44.507-3.08.76-4.92.76-1.146 0-2.16-.12-3.04-.36-.88-.24-1.653-.573-2.32-1-.586-.373-1.053-.8-1.4-1.28a2.912 2.912 0 01-.52-1.68c0-.773.24-1.4.72-1.88.48-.507 1.147-.76 2-.76.827 0 1.507.24 2.04.72.56.453.84 1.08.84 1.88 0 .693-.213 1.267-.64 1.72-.4.427-.906.707-1.52.84.214.267.64.507 1.28.72.667.213 1.36.32 2.08.32 1.547 0 2.747-.467 3.6-1.4.854-.933 1.28-2.187 1.28-3.76 0-1.333-.32-2.507-.96-3.52-.64-1.013-1.613-1.613-2.92-1.8a8.104 8.104 0 01-.84.36 2.23 2.23 0 01-.84.16c-.586 0-.88-.227-.88-.68 0-.427.307-.64.92-.64.267 0 .547.027.84.08.294.053.574.107.84.16 1.094-.427 1.827-1.053 2.2-1.88.4-.853.6-1.8.6-2.84 0-1.333-.253-2.36-.76-3.08-.506-.747-1.293-1.12-2.36-1.12-.986 0-1.88.293-2.68.88-.8.56-1.44 1.333-1.92 2.32-.48.987-.733 2.12-.76 3.4h-.92c.054-1.36.067-2.507.04-3.44a41.627 41.627 0 00-.12-2.36 19.86 19.86 0 00-.12-1.56h.92c.08.587.174 1.027.28 1.32.134.293.334.44.6.44.16 0 .347-.067.56-.2.24-.133.507-.293.8-.48.614-.373 1.28-.693 2-.96.747-.293 1.694-.44 2.84-.44zm21.177.6c2.027 0 3.614.2 4.76.6 1.174.4 2 .96 2.48 1.68.507.72.76 1.547.76 2.48 0 1.467-.773 2.72-2.32 3.76-1.546 1.04-3.906 1.547-7.08 1.52l-.24-.04a2.158 2.158 0 00-.44-.12l-.24-.08c1.414-.027 2.494-.213 3.24-.56.774-.347 1.294-.853 1.56-1.52.267-.693.4-1.533.4-2.52 0-.827-.093-1.56-.28-2.2a2.676 2.676 0 00-1.12-1.56c-.56-.4-1.373-.6-2.44-.6-.853 0-1.453.2-1.8.6-.346.4-.52 1.16-.52 2.28v13.2c0 1.173.174 1.947.52 2.32.374.373 1.014.56 1.92.56 1.28 0 2.254-.227 2.92-.68.667-.453 1.12-1.04 1.36-1.76.267-.72.4-1.493.4-2.32 0-1.68-.426-2.853-1.28-3.52-.826-.667-2-1-3.52-1h-5.12v-.72h5.48l.6.08c2.214 0 3.987.2 5.32.6 1.334.373 2.28.947 2.84 1.72.587.747.88 1.68.88 2.8 0 1.093-.28 2.067-.84 2.92-.533.853-1.426 1.52-2.68 2-1.253.48-2.946.72-5.08.72-.853 0-1.826-.027-2.92-.08a66.908 66.908 0 00-3.32-.08c-.96 0-1.946.027-2.96.08a95.08 95.08 0 00-2.28.08v-.84c.987 0 1.68-.2 2.08-.6.427-.4.64-1.16.64-2.28v-13.2c0-1.12-.213-1.88-.64-2.28-.4-.4-1.093-.6-2.08-.6v-.84l2.2.12c.987.027 1.947.04 2.88.04 1.12 0 2.2-.027 3.24-.08 1.04-.053 1.947-.08 2.72-.08zm35.298 0v.84c-.986 0-1.693.2-2.12.6-.4.4-.6 1.16-.6 2.28v13.2c0 1.12.2 1.88.6 2.28.427.4 1.134.6 2.12.6v.84a85.068 85.068 0 00-2.24-.08 53.689 53.689 0 00-2.88-.08c-.986 0-1.946.027-2.88.08-.906.027-1.6.053-2.08.08v-.84c.854 0 1.454-.2 1.8-.6.347-.4.52-1.16.52-2.28v-13.16c0-1.147-.173-1.92-.52-2.32-.346-.4-.946-.6-1.8-.6v-.84l2 .12c.907.027 1.84.04 2.8.04.96 0 1.947-.013 2.96-.04l2.32-.12zm-13.68 0v.84c-.853 0-1.453.2-1.8.6-.346.4-.52 1.16-.52 2.28v13.2c0 1.12.174 1.88.52 2.28.347.4.947.6 1.8.6v.84a75.93 75.93 0 00-2.04-.08 47.254 47.254 0 00-2.76-.08c-.986 0-1.986.027-3 .08a95.08 95.08 0 00-2.28.08v-.84c.987 0 1.68-.2 2.08-.6.427-.4.64-1.16.64-2.28v-13.16c0-1.147-.213-1.92-.64-2.32-.4-.4-1.093-.6-2.08-.6v-.84l2.2.12c1.014.027 1.987.04 2.92.04.96 0 1.907-.013 2.84-.04l2.12-.12zm6.36 2.6l.64.4-9.96 15.8-.68-.44 10-15.76zm30.18-2.6a66.785 66.785 0 00-.24 3.08c-.027.96-.04 1.693-.04 2.2 0 .533.013 1.04.04 1.52.026.453.053.827.08 1.12h-.92c-.267-1.893-.654-3.347-1.16-4.36-.507-1.04-1.12-1.747-1.84-2.12-.694-.4-1.467-.6-2.32-.6h-1.4v15.68c0 1.307.346 2.187 1.04 2.64.693.427 1.653.64 2.88.64v.84c-.667-.027-1.587-.053-2.76-.08a79.942 79.942 0 00-3.68-.08c-1.307 0-2.547.027-3.72.08-1.174.027-2.08.053-2.72.08v-.84c1.226 0 2.186-.187 2.88-.56.693-.4 1.04-1.253 1.04-2.56V192.2h-1.64c-.88 0-1.654.2-2.32.6-.667.4-1.24 1.12-1.72 2.16-.454 1.013-.814 2.467-1.08 4.36h-.92c.053-.32.08-.707.08-1.16.026-.48.04-.973.04-1.48s-.027-1.24-.08-2.2a43.111 43.111 0 00-.2-3.08h4.12c.8 0 1.746.027 2.84.08 1.12.027 2.24.04 3.36.04 1.12 0 2.24-.027 3.36-.08a62.32 62.32 0 012.88-.08h4.12zm25.929 0v.84c-.986 0-1.693.2-2.12.6-.4.4-.6 1.16-.6 2.28v13.2c0 1.12.2 1.88.6 2.28.427.4 1.134.6 2.12.6v.84a85.068 85.068 0 00-2.24-.08 53.689 53.689 0 00-2.88-.08c-.986 0-1.946.027-2.88.08-.906.027-1.6.053-2.08.08v-.84c.854 0 1.454-.2 1.8-.6.347-.4.52-1.16.52-2.28v-13.16c0-1.147-.173-1.92-.52-2.32-.346-.4-.946-.6-1.8-.6v-.84l2 .12c.907.027 1.84.04 2.8.04.96 0 1.947-.013 2.96-.04l2.32-.12zm-13.68 0v.84c-.853 0-1.453.2-1.8.6-.346.4-.52 1.16-.52 2.28v13.2c0 1.12.174 1.88.52 2.28.347.4.947.6 1.8.6v.84a75.93 75.93 0 00-2.04-.08 47.254 47.254 0 00-2.76-.08c-.986 0-1.986.027-3 .08a95.08 95.08 0 00-2.28.08v-.84c.987 0 1.68-.2 2.08-.6.427-.4.64-1.16.64-2.28v-13.16c0-1.147-.213-1.92-.64-2.32-.4-.4-1.093-.6-2.08-.6v-.84l2.2.12c1.014.027 1.987.04 2.92.04.96 0 1.907-.013 2.84-.04l2.12-.12zm6.36 2.6l.64.4-9.96 15.8-.68-.44 10-15.76zm19.5-3.2c2.346 0 4.186.707 5.52 2.12 1.333 1.413 2 3.667 2 6.76h-13.48l-.04-.76h8.88c.053-1.307-.027-2.507-.24-3.6-.214-1.12-.56-2.013-1.04-2.68-.454-.667-1.054-1-1.8-1-1.014 0-1.894.6-2.64 1.8-.747 1.173-1.214 3.107-1.4 5.8l.16.24c-.054.347-.094.72-.12 1.12v1.2c0 1.84.266 3.36.8 4.56.533 1.2 1.226 2.08 2.08 2.64.853.56 1.733.84 2.64.84.613 0 1.24-.093 1.88-.28.64-.187 1.266-.533 1.88-1.04.613-.507 1.173-1.227 1.68-2.16l.76.32c-.294.933-.787 1.867-1.48 2.8-.667.907-1.534 1.653-2.6 2.24-1.067.587-2.32.88-3.76.88-1.814 0-3.414-.4-4.8-1.2-1.387-.8-2.467-1.987-3.24-3.56-.774-1.6-1.16-3.547-1.16-5.84 0-2.427.4-4.467 1.2-6.12.826-1.653 1.96-2.907 3.4-3.76 1.44-.88 3.08-1.32 4.92-1.32z"/></g><defs><linearGradient id="paint0_linear_510_635" x1="111.02" y1="227.56" x2="111.177" y2="238.783" gradientUnits="userSpaceOnUse"><stop stop-color="#FFDA58"/><stop offset="1" stop-color="#E0AF32"/></linearGradient><linearGradient id="paint1_linear_510_635" x1="111.02" y1="227.56" x2="111.177" y2="238.783" gradientUnits="userSpaceOnUse"><stop stop-color="#FFDA58"/><stop offset="1" stop-color="#E0AF32"/></linearGradient><linearGradient id="paint2_linear_510_635" x1="111.02" y1="227.56" x2="111.177" y2="238.783" gradientUnits="userSpaceOnUse"><stop stop-color="#FFDA58"/><stop offset="1" stop-color="#E0AF32"/></linearGradient><linearGradient id="paint3_linear_510_635" x1="111.02" y1="227.56" x2="111.177" y2="238.783" gradientUnits="userSpaceOnUse"><stop stop-color="#FFDA58"/><stop offset="1" stop-color="#E0AF32"/></linearGradient><linearGradient id="paint4_linear_510_635" x1="111.02" y1="227.56" x2="111.177" y2="238.783" gradientUnits="userSpaceOnUse"><stop stop-color="#FFDA58"/><stop offset="1" stop-color="#E0AF32"/></linearGradient><linearGradient id="paint5_linear_510_635" x1="111.02" y1="227.56" x2="111.177" y2="238.783" gradientUnits="userSpaceOnUse"><stop stop-color="#FFDA58"/><stop offset="1" stop-color="#E0AF32"/></linearGradient><linearGradient id="paint6_linear_510_635" x1="111.02" y1="227.56" x2="111.177" y2="238.783" gradientUnits="userSpaceOnUse"><stop stop-color="#FFDA58"/><stop offset="1" stop-color="#E0AF32"/></linearGradient><linearGradient id="paint7_linear_510_635" x1="111.02" y1="227.56" x2="111.177" y2="238.783" gradientUnits="userSpaceOnUse"><stop stop-color="#FFDA58"/><stop offset="1" stop-color="#E0AF32"/></linearGradient><linearGradient id="paint8_linear_510_635" x1="111.02" y1="227.56" x2="111.177" y2="238.783" gradientUnits="userSpaceOnUse"><stop stop-color="#FFDA58"/><stop offset="1" stop-color="#E0AF32"/></linearGradient><linearGradient id="paint9_linear_510_635" x1="111.02" y1="227.56" x2="111.177" y2="238.783" gradientUnits="userSpaceOnUse"><stop stop-color="#FFDA58"/><stop offset="1" stop-color="#E0AF32"/></linearGradient><linearGradient id="paint10_linear_510_635" x1="111.02" y1="227.56" x2="111.177" y2="238.783" gradientUnits="userSpaceOnUse"><stop stop-color="#FFDA58"/><stop offset="1" stop-color="#E0AF32"/></linearGradient><linearGradient id="paint11_linear_510_635" x1="111.02" y1="227.56" x2="111.177" y2="238.783" gradientUnits="userSpaceOnUse"><stop stop-color="#FFDA58"/><stop offset="1" stop-color="#E0AF32"/></linearGradient><linearGradient id="paint12_linear_510_635" x1="111.02" y1="227.56" x2="111.177" y2="238.783" gradientUnits="userSpaceOnUse"><stop stop-color="#FFDA58"/><stop offset="1" stop-color="#E0AF32"/></linearGradient><linearGradient id="paint13_linear_510_635" x1="111.02" y1="227.56" x2="111.177" y2="238.783" gradientUnits="userSpaceOnUse"><stop stop-color="#FFDA58"/><stop offset="1" stop-color="#E0AF32"/></linearGradient><linearGradient id="paint14_linear_510_635" x1="111.02" y1="227.56" x2="111.177" y2="238.783" gradientUnits="userSpaceOnUse"><stop stop-color="#FFDA58"/><stop offset="1" stop-color="#E0AF32"/></linearGradient><linearGradient id="paint15_linear_510_635" x1="111.02" y1="227.56" x2="111.177" y2="238.783" gradientUnits="userSpaceOnUse"><stop stop-color="#FFDA58"/><stop offset="1" stop-color="#E0AF32"/></linearGradient><linearGradient id="paint16_linear_510_635" x1="111.02" y1="227.56" x2="111.177" y2="238.783" gradientUnits="userSpaceOnUse"><stop stop-color="#FFDA58"/><stop offset="1" stop-color="#E0AF32"/></linearGradient><linearGradient id="paint17_linear_510_635" x1="111.02" y1="227.56" x2="111.177" y2="238.783" gradientUnits="userSpaceOnUse"><stop stop-color="#FFDA58"/><stop offset="1" stop-color="#E0AF32"/></linearGradient><linearGradient id="paint18_linear_510_635" x1="111.02" y1="227.56" x2="111.177" y2="238.783" gradientUnits="userSpaceOnUse"><stop stop-color="#FFDA58"/><stop offset="1" stop-color="#E0AF32"/></linearGradient><linearGradient id="paint19_linear_510_635" x1="111.02" y1="227.56" x2="111.177" y2="238.783" gradientUnits="userSpaceOnUse"><stop stop-color="#FFDA58"/><stop offset="1" stop-color="#E0AF32"/></linearGradient><linearGradient id="paint20_linear_510_635" x1="111.02" y1="227.56" x2="111.177" y2="238.783" gradientUnits="userSpaceOnUse"><stop stop-color="#FFDA58"/><stop offset="1" stop-color="#E0AF32"/></linearGradient><linearGradient id="paint21_linear_510_635" x1="111.02" y1="227.56" x2="111.177" y2="238.783" gradientUnits="userSpaceOnUse"><stop stop-color="#FFDA58"/><stop offset="1" stop-color="#E0AF32"/></linearGradient><linearGradient id="paint22_linear_510_635" x1="111.02" y1="227.56" x2="111.177" y2="238.783" gradientUnits="userSpaceOnUse"><stop stop-color="#FFDA58"/><stop offset="1" stop-color="#E0AF32"/></linearGradient><linearGradient id="paint23_linear_510_635" x1="111.02" y1="227.56" x2="111.177" y2="238.783" gradientUnits="userSpaceOnUse"><stop stop-color="#FFDA58"/><stop offset="1" stop-color="#E0AF32"/></linearGradient><linearGradient id="paint24_linear_510_635" x1="111.02" y1="227.56" x2="111.177" y2="238.783" gradientUnits="userSpaceOnUse"><stop stop-color="#FFDA58"/><stop offset="1" stop-color="#E0AF32"/></linearGradient><linearGradient id="paint25_linear_510_635" x1="130.5" y1="30" x2="139.043" y2="179.583" gradientUnits="userSpaceOnUse"><stop stop-color="#FFE380"/><stop offset="1" stop-color="#DBA826"/></linearGradient><linearGradient id="paint26_linear_510_635" x1="181.776" y1="100.896" x2="190.411" y2="135.498" gradientUnits="userSpaceOnUse"><stop stop-color="#FFDA58"/><stop offset="1" stop-color="#E0AF32"/></linearGradient><linearGradient id="paint27_linear_510_635" x1="186.789" y1="140" x2="194.523" y2="176.061" gradientUnits="userSpaceOnUse"><stop stop-color="#FFDA58"/><stop offset="1" stop-color="#E0AF32"/></linearGradient><filter id="filter0_f_510_635" x="103.342" y="9.109" width="40.615" height="42.492" filterUnits="userSpaceOnUse" color-interpolation-filters="sRGB"><feFlood flood-opacity="0" result="BackgroundImageFix"/><feBlend in="SourceGraphic" in2="BackgroundImageFix" result="shape"/><feGaussianBlur stdDeviation="7" result="effect1_foregroundBlur_510_635"/></filter><filter id="filter1_f_510_635" x="152.072" y="85.263" width="62.086" height="37.076" filterUnits="userSpaceOnUse" color-interpolation-filters="sRGB"><feFlood flood-opacity="0" result="BackgroundImageFix"/><feBlend in="SourceGraphic" in2="BackgroundImageFix" result="shape"/><feGaussianBlur stdDeviation="7" result="effect1_foregroundBlur_510_635"/></filter><filter id="filter2_f_510_635" x="157.178" y="123.62" width="62.065" height="37.154" filterUnits="userSpaceOnUse" color-interpolation-filters="sRGB"><feFlood flood-opacity="0" result="BackgroundImageFix"/><feBlend in="SourceGraphic" in2="BackgroundImageFix" result="shape"/><feGaussianBlur stdDeviation="7" result="effect1_foregroundBlur_510_635"/></filter><filter id="filter3_f_510_635" x="130" y="7" width="40" height="40" filterUnits="userSpaceOnUse" color-interpolation-filters="sRGB"><feFlood flood-opacity="0" result="BackgroundImageFix"/><feBlend in="SourceGraphic" in2="BackgroundImageFix" result="shape"/><feGaussianBlur stdDeviation="7" result="effect1_foregroundBlur_510_635"/></filter><filter id="filter4_f_510_635" x="44" y="60" width="40" height="40" filterUnits="userSpaceOnUse" color-interpolation-filters="sRGB"><feFlood flood-opacity="0" result="BackgroundImageFix"/><feBlend in="SourceGraphic" in2="BackgroundImageFix" result="shape"/><feGaussianBlur stdDeviation="7" result="effect1_foregroundBlur_510_635"/></filter><filter id="filter5_f_510_635" x="44" y="60" width="66" height="32" filterUnits="userSpaceOnUse" color-interpolation-filters="sRGB"><feFlood flood-opacity="0" result="BackgroundImageFix"/><feBlend in="SourceGraphic" in2="BackgroundImageFix" result="shape"/><feGaussianBlur stdDeviation="7" result="effect1_foregroundBlur_510_635"/></filter><filter id="filter6_f_510_635" x="71" y="39" width="66" height="32" filterUnits="userSpaceOnUse" color-interpolation-filters="sRGB"><feFlood flood-opacity="0" result="BackgroundImageFix"/><feBlend in="SourceGraphic" in2="BackgroundImageFix" result="shape"/><feGaussianBlur stdDeviation="7" result="effect1_foregroundBlur_510_635"/></filter><filter id="filter7_d_510_635" x="32.44" y="183.68" width="186.646" height="36.88" filterUnits="userSpaceOnUse" color-interpolation-filters="sRGB"><feFlood flood-opacity="0" result="BackgroundImageFix"/><feColorMatrix in="SourceAlpha" values="0 0 0 0 0 0 0 0 0 0 0 0 0 0 0 0 0 0 127 0" result="hardAlpha"/><feOffset dy="4"/><feGaussianBlur stdDeviation="2"/><feComposite in2="hardAlpha" operator="out"/><feColorMatrix values="0 0 0 0 1 0 0 0 0 1 0 0 0 0 1 0 0 0 0.1 0"/><feBlend in2="BackgroundImageFix" result="effect1_dropShadow_510_635"/><feBlend in="SourceGraphic" in2="effect1_dropShadow_510_635" result="shape"/></filter></defs></svg>