<svg width="176" height="202" fill="none" xmlns="http://www.w3.org/2000/svg"><path d="M19.265 131.047V70.604h30.661m0 0v62.47m0-62.47V49.519h29.129m0 0v74.952m0-74.952V20h29.129v95.383m23.221-8.232c-26.062 9.84-45.992 15.462-88.918 28.113-13.475 3.971-31.452-7.245-33.797-14.056m0 0c-6.064 14.056 4.667 33.735 24.598 33.735 24.577 0 61.323-16.868 82.787-23.896M8.69 121.208C5.768 112.721 6.443 100.291 12.5 93m59.115 76l64.39-22.491" stroke="#fff" stroke-width="5" stroke-linecap="round"/><path d="M19.265 131.047V70.604h30.661m0 0v62.47m0-62.47V49.519h29.129m0 0v74.952m0-74.952V20h29.129v95.383m23.221-8.232c-26.062 9.84-45.992 15.462-88.918 28.113-13.475 3.971-31.452-7.245-33.797-14.056m0 0c-6.064 14.056 4.667 33.735 24.598 33.735 24.577 0 61.323-16.868 82.787-23.896M8.69 121.208C5.768 112.721 6.443 100.291 12.5 93m59.115 76l64.39-22.491" stroke="url(#paint0_linear_206_249)" stroke-width="5" stroke-linecap="round"/><path d="M157.796 94.846l-34.195-.3a1 1 0 00-.912 1.432l11.793 24.711a1 1 0 001.639.246l22.403-24.413c.586-.639.138-1.669-.728-1.676z" fill="url(#paint1_linear_206_249)"/><path d="M162.76 133h-34.264a1 1 0 00-.924 1.382l10.82 26.149a1 1 0 001.669.286l23.444-26.149c.577-.644.12-1.668-.745-1.668z" fill="url(#paint2_linear_206_249)"/><g filter="url(#filter0_f_206_249)"><ellipse cx="79.649" cy="23.355" rx="6" ry="7.5" transform="rotate(-25.567 79.65 23.355)" fill="#fff" fill-opacity=".55"/></g><g filter="url(#filter1_f_206_249)"><ellipse cx="139.115" cy="96.801" rx="4.53" ry="17.045" transform="rotate(-90.91 139.115 96.8)" fill="#fff" fill-opacity=".55"/></g><g filter="url(#filter2_f_206_249)"><ellipse cx="144.21" cy="135.197" rx="4.53" ry="17.045" transform="rotate(-92.253 144.21 135.197)" fill="#fff" fill-opacity=".55"/></g><g filter="url(#filter3_f_206_249)"><circle cx="106" cy="20" r="6" fill="#fff" fill-opacity=".55"/></g><g filter="url(#filter4_f_206_249)"><circle cx="20" cy="73" r="6" fill="#fff" fill-opacity=".45"/></g><g filter="url(#filter5_f_206_249)"><ellipse cx="33" cy="69" rx="19" ry="2" fill="#fff" fill-opacity=".55"/></g><g filter="url(#filter6_f_206_249)"><ellipse cx="60" cy="48" rx="19" ry="2" fill="#fff" fill-opacity=".55"/></g><defs><filter id="filter0_f_206_249" x="59.342" y="2.109" width="40.615" height="42.492" filterUnits="userSpaceOnUse" color-interpolation-filters="sRGB"><feFlood flood-opacity="0" result="BackgroundImageFix"/><feBlend in="SourceGraphic" in2="BackgroundImageFix" result="shape"/><feGaussianBlur stdDeviation="7" result="effect1_foregroundBlur_206_249"/></filter><filter id="filter1_f_206_249" x="108.072" y="78.263" width="62.086" height="37.076" filterUnits="userSpaceOnUse" color-interpolation-filters="sRGB"><feFlood flood-opacity="0" result="BackgroundImageFix"/><feBlend in="SourceGraphic" in2="BackgroundImageFix" result="shape"/><feGaussianBlur stdDeviation="7" result="effect1_foregroundBlur_206_249"/></filter><filter id="filter2_f_206_249" x="113.178" y="116.62" width="62.065" height="37.154" filterUnits="userSpaceOnUse" color-interpolation-filters="sRGB"><feFlood flood-opacity="0" result="BackgroundImageFix"/><feBlend in="SourceGraphic" in2="BackgroundImageFix" result="shape"/><feGaussianBlur stdDeviation="7" result="effect1_foregroundBlur_206_249"/></filter><filter id="filter3_f_206_249" x="86" y="0" width="40" height="40" filterUnits="userSpaceOnUse" color-interpolation-filters="sRGB"><feFlood flood-opacity="0" result="BackgroundImageFix"/><feBlend in="SourceGraphic" in2="BackgroundImageFix" result="shape"/><feGaussianBlur stdDeviation="7" result="effect1_foregroundBlur_206_249"/></filter><filter id="filter4_f_206_249" x="0" y="53" width="40" height="40" filterUnits="userSpaceOnUse" color-interpolation-filters="sRGB"><feFlood flood-opacity="0" result="BackgroundImageFix"/><feBlend in="SourceGraphic" in2="BackgroundImageFix" result="shape"/><feGaussianBlur stdDeviation="7" result="effect1_foregroundBlur_206_249"/></filter><filter id="filter5_f_206_249" x="0" y="53" width="66" height="32" filterUnits="userSpaceOnUse" color-interpolation-filters="sRGB"><feFlood flood-opacity="0" result="BackgroundImageFix"/><feBlend in="SourceGraphic" in2="BackgroundImageFix" result="shape"/><feGaussianBlur stdDeviation="7" result="effect1_foregroundBlur_206_249"/></filter><filter id="filter6_f_206_249" x="27" y="32" width="66" height="32" filterUnits="userSpaceOnUse" color-interpolation-filters="sRGB"><feFlood flood-opacity="0" result="BackgroundImageFix"/><feBlend in="SourceGraphic" in2="BackgroundImageFix" result="shape"/><feGaussianBlur stdDeviation="7" result="effect1_foregroundBlur_206_249"/></filter><linearGradient id="paint0_linear_206_249" x1="86.5" y1="23" x2="95.043" y2="172.583" gradientUnits="userSpaceOnUse"><stop stop-color="#FFE380"/><stop offset="1" stop-color="#DBA826"/></linearGradient><linearGradient id="paint1_linear_206_249" x1="137.776" y1="93.896" x2="146.411" y2="128.498" gradientUnits="userSpaceOnUse"><stop stop-color="#FFDA58"/><stop offset="1" stop-color="#E0AF32"/></linearGradient><linearGradient id="paint2_linear_206_249" x1="142.789" y1="133" x2="150.523" y2="169.061" gradientUnits="userSpaceOnUse"><stop stop-color="#FFDA58"/><stop offset="1" stop-color="#E0AF32"/></linearGradient></defs></svg>