<svg width="113" height="114" fill="none" xmlns="http://www.w3.org/2000/svg"><g filter="url(#filter0_d_510_1494)" stroke-width="5" stroke-linecap="round" stroke-linejoin="round" shape-rendering="crispEdges"><path d="M17.39 81.208V46.502h17.524m0 0v35.87m0-35.87V34.395H51.56m0 0v43.037m0-43.037v-16.95h16.65v54.768m13.271-4.726c-14.895 5.65-26.285 8.878-50.818 16.142-7.701 2.28-17.975-4.16-19.316-8.071m6.044-19.371c-5.296 2.421-8.103 13.36-6.043 19.37m0 0C7.88 83.63 14.014 94.93 25.404 94.93c14.046 0 35.047-9.686 47.313-13.721M47.31 103l36.8-12.914" stroke="#fff"/><path d="M17.39 81.208V46.502h17.524m0 0v35.87m0-35.87V34.395H51.56m0 0v43.037m0-43.037v-16.95h16.65v54.768m13.271-4.726c-14.895 5.65-26.285 8.878-50.818 16.142-7.701 2.28-17.975-4.16-19.316-8.071m6.044-19.371c-5.296 2.421-8.103 13.36-6.043 19.37m0 0C7.88 83.63 14.014 94.93 25.404 94.93c14.046 0 35.047-9.686 47.313-13.721M47.31 103l36.8-12.914" stroke="url(#paint0_linear_510_1494)"/></g><path d="M93.367 60.393L79.3 60.269a2 2 0 00-1.824 2.859l4.85 10.213a2 2 0 003.283.49l9.216-10.09c1.167-1.277.272-3.333-1.458-3.348z" fill="url(#paint1_linear_510_1494)" stroke="url(#paint2_linear_510_1494)" stroke-width="2" stroke-linecap="round" stroke-linejoin="round"/><path d="M96.214 82.33H81.95a2 2 0 00-1.85 2.76l4.505 10.939a2 2 0 003.342.57l9.76-10.938c1.15-1.29.236-3.332-1.492-3.332z" fill="url(#paint3_linear_510_1494)" stroke="url(#paint4_linear_510_1494)" stroke-width="2" stroke-linecap="round" stroke-linejoin="round"/><g filter="url(#filter1_f_510_1494)"><ellipse cx="3.432" cy="4.303" rx="3.432" ry="4.303" transform="rotate(-25.671 60.728 -94.562) skewX(-.208)" fill="#fff" fill-opacity=".55"/></g><g filter="url(#filter2_f_510_1494)"><ellipse cx="2.601" cy="9.741" rx="2.601" ry="9.741" transform="rotate(-90.906 69.74 -5.345) skewX(.009)" fill="#fff" fill-opacity=".55"/></g><g filter="url(#filter3_f_510_1494)"><ellipse cx="2.601" cy="9.741" rx="2.601" ry="9.741" transform="rotate(-92.242 81.208 5.224) skewX(.021)" fill="#fff" fill-opacity=".55"/></g><g filter="url(#filter4_f_510_1494)"><ellipse cx="66.96" cy="17.445" rx="3.429" ry="3.445" fill="#fff" fill-opacity=".55"/></g><g filter="url(#filter5_f_510_1494)"><ellipse cx="17.811" cy="47.878" rx="3.429" ry="3.445" fill="#fff" fill-opacity=".45"/></g><g filter="url(#filter6_f_510_1494)"><ellipse cx="25.241" cy="45.581" rx="10.859" ry="1.148" fill="#fff" fill-opacity=".55"/></g><g filter="url(#filter7_f_510_1494)"><ellipse cx="40.671" cy="33.522" rx="10.859" ry="1.148" fill="#fff" fill-opacity=".55"/></g><defs><filter id="filter0_d_510_1494" x="3.879" y="14.945" width="86.731" height="98.556" filterUnits="userSpaceOnUse" color-interpolation-filters="sRGB"><feFlood flood-opacity="0" result="BackgroundImageFix"/><feColorMatrix in="SourceAlpha" values="0 0 0 0 0 0 0 0 0 0 0 0 0 0 0 0 0 0 127 0" result="hardAlpha"/><feOffset dy="4"/><feGaussianBlur stdDeviation="2"/><feComposite in2="hardAlpha" operator="out"/><feColorMatrix values="0 0 0 0 0 0 0 0 0 0 0 0 0 0 0 0 0 0 0.25 0"/><feBlend in2="BackgroundImageFix" result="effect1_dropShadow_510_1494"/><feBlend in="SourceGraphic" in2="effect1_dropShadow_510_1494" result="shape"/></filter><filter id="filter1_f_510_1494" x="34.296" y="1.211" width="35.21" height="36.321" filterUnits="userSpaceOnUse" color-interpolation-filters="sRGB"><feFlood flood-opacity="0" result="BackgroundImageFix"/><feBlend in="SourceGraphic" in2="BackgroundImageFix" result="shape"/><feGaussianBlur stdDeviation="7" result="effect1_foregroundBlur_510_1494"/></filter><filter id="filter2_f_510_1494" x="62.147" y="44.938" width="47.48" height="33.212" filterUnits="userSpaceOnUse" color-interpolation-filters="sRGB"><feFlood flood-opacity="0" result="BackgroundImageFix"/><feBlend in="SourceGraphic" in2="BackgroundImageFix" result="shape"/><feGaussianBlur stdDeviation="7" result="effect1_foregroundBlur_510_1494"/></filter><filter id="filter3_f_510_1494" x="65.064" y="66.962" width="47.469" height="33.256" filterUnits="userSpaceOnUse" color-interpolation-filters="sRGB"><feFlood flood-opacity="0" result="BackgroundImageFix"/><feBlend in="SourceGraphic" in2="BackgroundImageFix" result="shape"/><feGaussianBlur stdDeviation="7" result="effect1_foregroundBlur_510_1494"/></filter><filter id="filter4_f_510_1494" x="49.531" y="0" width="34.858" height="34.891" filterUnits="userSpaceOnUse" color-interpolation-filters="sRGB"><feFlood flood-opacity="0" result="BackgroundImageFix"/><feBlend in="SourceGraphic" in2="BackgroundImageFix" result="shape"/><feGaussianBlur stdDeviation="7" result="effect1_foregroundBlur_510_1494"/></filter><filter id="filter5_f_510_1494" x=".382" y="30.433" width="34.858" height="34.891" filterUnits="userSpaceOnUse" color-interpolation-filters="sRGB"><feFlood flood-opacity="0" result="BackgroundImageFix"/><feBlend in="SourceGraphic" in2="BackgroundImageFix" result="shape"/><feGaussianBlur stdDeviation="7" result="effect1_foregroundBlur_510_1494"/></filter><filter id="filter6_f_510_1494" x=".382" y="30.433" width="49.718" height="30.297" filterUnits="userSpaceOnUse" color-interpolation-filters="sRGB"><feFlood flood-opacity="0" result="BackgroundImageFix"/><feBlend in="SourceGraphic" in2="BackgroundImageFix" result="shape"/><feGaussianBlur stdDeviation="7" result="effect1_foregroundBlur_510_1494"/></filter><filter id="filter7_f_510_1494" x="15.813" y="18.374" width="49.718" height="30.297" filterUnits="userSpaceOnUse" color-interpolation-filters="sRGB"><feFlood flood-opacity="0" result="BackgroundImageFix"/><feBlend in="SourceGraphic" in2="BackgroundImageFix" result="shape"/><feGaussianBlur stdDeviation="7" result="effect1_foregroundBlur_510_1494"/></filter><linearGradient id="paint0_linear_510_1494" x1="55.816" y1="19.168" x2="60.744" y2="105.055" gradientUnits="userSpaceOnUse"><stop stop-color="#FFE380"/><stop offset="1" stop-color="#A77A06"/></linearGradient><linearGradient id="paint1_linear_510_1494" x1="85.121" y1="59.876" x2="90.099" y2="79.733" gradientUnits="userSpaceOnUse"><stop stop-color="#FFDA58"/><stop offset="1" stop-color="#E0AF32"/></linearGradient><linearGradient id="paint2_linear_510_1494" x1="85.121" y1="59.876" x2="90.099" y2="79.733" gradientUnits="userSpaceOnUse"><stop stop-color="#FFDA58"/><stop offset="1" stop-color="#E0AF32"/></linearGradient><linearGradient id="paint3_linear_510_1494" x1="87.985" y1="82.329" x2="92.445" y2="103.027" gradientUnits="userSpaceOnUse"><stop stop-color="#FFDA58"/><stop offset="1" stop-color="#E0AF32"/></linearGradient><linearGradient id="paint4_linear_510_1494" x1="87.985" y1="82.329" x2="92.445" y2="103.027" gradientUnits="userSpaceOnUse"><stop stop-color="#FFDA58"/><stop offset="1" stop-color="#E0AF32"/></linearGradient></defs></svg>