<svg width="160" height="146" fill="none" xmlns="http://www.w3.org/2000/svg"><g filter="url(#filter0_d_510_1493)" stroke-width="5" stroke-linecap="round" stroke-linejoin="round" shape-rendering="crispEdges"><path d="M40.39 81.208V46.502h17.524m0 0v35.87m0-35.87V34.395H74.56m0 0v43.037m0-43.037v-16.95h16.65v54.768m13.271-4.726c-14.895 5.65-26.285 8.878-50.818 16.142-7.701 2.28-17.975-4.16-19.316-8.071m6.044-19.371c-5.296 2.421-8.103 13.36-6.044 19.37m0 0C30.881 83.63 37.014 94.93 48.405 94.93c14.046 0 35.047-9.686 47.313-13.721M70.31 103l36.8-12.914" stroke="#fff"/><path d="M40.39 81.208V46.502h17.524m0 0v35.87m0-35.87V34.395H74.56m0 0v43.037m0-43.037v-16.95h16.65v54.768m13.271-4.726c-14.895 5.65-26.285 8.878-50.818 16.142-7.701 2.28-17.975-4.16-19.316-8.071m6.044-19.371c-5.296 2.421-8.103 13.36-6.044 19.37m0 0C30.881 83.63 37.014 94.93 48.405 94.93c14.046 0 35.047-9.686 47.313-13.721M70.31 103l36.8-12.914" stroke="url(#paint0_linear_510_1493)"/></g><path d="M116.367 60.393l-14.067-.124a2 2 0 00-1.824 2.859l4.85 10.213a2 2 0 003.283.49l9.216-10.09c1.167-1.277.272-3.333-1.458-3.348z" fill="url(#paint1_linear_510_1493)" stroke="url(#paint2_linear_510_1493)" stroke-width="2" stroke-linecap="round" stroke-linejoin="round"/><path d="M119.214 82.33h-14.265a2 2 0 00-1.85 2.76l4.505 10.939a2 2 0 003.342.57l9.76-10.938c1.151-1.29.236-3.332-1.492-3.332z" fill="url(#paint3_linear_510_1493)" stroke="url(#paint4_linear_510_1493)" stroke-width="2" stroke-linecap="round" stroke-linejoin="round"/><g filter="url(#filter1_f_510_1493)"><ellipse cx="3.432" cy="4.303" rx="3.432" ry="4.303" transform="rotate(-25.671 72.227 -145.035) skewX(-.208)" fill="#fff" fill-opacity=".55"/></g><g filter="url(#filter2_f_510_1493)"><ellipse cx="2.601" cy="9.741" rx="2.601" ry="9.741" transform="rotate(-90.906 81.24 -16.665) skewX(.009)" fill="#fff" fill-opacity=".55"/></g><g filter="url(#filter3_f_510_1493)"><ellipse cx="2.601" cy="9.741" rx="2.601" ry="9.741" transform="rotate(-92.242 92.708 -5.835) skewX(.021)" fill="#fff" fill-opacity=".55"/></g><g filter="url(#filter4_f_510_1493)"><ellipse cx="89.96" cy="17.445" rx="3.429" ry="3.445" fill="#fff" fill-opacity=".55"/></g><g filter="url(#filter5_f_510_1493)"><ellipse cx="40.811" cy="47.878" rx="3.429" ry="3.445" fill="#fff" fill-opacity=".45"/></g><g filter="url(#filter6_f_510_1493)"><ellipse cx="48.241" cy="45.581" rx="10.859" ry="1.148" fill="#fff" fill-opacity=".55"/></g><g filter="url(#filter7_f_510_1493)"><ellipse cx="63.671" cy="33.522" rx="10.859" ry="1.148" fill="#fff" fill-opacity=".55"/></g><g filter="url(#filter8_f_510_1493)"><ellipse cx="80.162" cy="117.5" rx="59.72" ry="8.5" fill="#E1B735" fill-opacity=".28"/></g><defs><filter id="filter0_d_510_1493" x="26.879" y="14.945" width="86.731" height="98.556" filterUnits="userSpaceOnUse" color-interpolation-filters="sRGB"><feFlood flood-opacity="0" result="BackgroundImageFix"/><feColorMatrix in="SourceAlpha" values="0 0 0 0 0 0 0 0 0 0 0 0 0 0 0 0 0 0 127 0" result="hardAlpha"/><feOffset dy="4"/><feGaussianBlur stdDeviation="2"/><feComposite in2="hardAlpha" operator="out"/><feColorMatrix values="0 0 0 0 0 0 0 0 0 0 0 0 0 0 0 0 0 0 0.25 0"/><feBlend in2="BackgroundImageFix" result="effect1_dropShadow_510_1493"/><feBlend in="SourceGraphic" in2="effect1_dropShadow_510_1493" result="shape"/></filter><filter id="filter1_f_510_1493" x="57.296" y="1.211" width="35.21" height="36.321" filterUnits="userSpaceOnUse" color-interpolation-filters="sRGB"><feFlood flood-opacity="0" result="BackgroundImageFix"/><feBlend in="SourceGraphic" in2="BackgroundImageFix" result="shape"/><feGaussianBlur stdDeviation="7" result="effect1_foregroundBlur_510_1493"/></filter><filter id="filter2_f_510_1493" x="85.147" y="44.938" width="47.48" height="33.212" filterUnits="userSpaceOnUse" color-interpolation-filters="sRGB"><feFlood flood-opacity="0" result="BackgroundImageFix"/><feBlend in="SourceGraphic" in2="BackgroundImageFix" result="shape"/><feGaussianBlur stdDeviation="7" result="effect1_foregroundBlur_510_1493"/></filter><filter id="filter3_f_510_1493" x="88.064" y="66.962" width="47.469" height="33.256" filterUnits="userSpaceOnUse" color-interpolation-filters="sRGB"><feFlood flood-opacity="0" result="BackgroundImageFix"/><feBlend in="SourceGraphic" in2="BackgroundImageFix" result="shape"/><feGaussianBlur stdDeviation="7" result="effect1_foregroundBlur_510_1493"/></filter><filter id="filter4_f_510_1493" x="72.531" y="0" width="34.858" height="34.891" filterUnits="userSpaceOnUse" color-interpolation-filters="sRGB"><feFlood flood-opacity="0" result="BackgroundImageFix"/><feBlend in="SourceGraphic" in2="BackgroundImageFix" result="shape"/><feGaussianBlur stdDeviation="7" result="effect1_foregroundBlur_510_1493"/></filter><filter id="filter5_f_510_1493" x="23.382" y="30.433" width="34.858" height="34.891" filterUnits="userSpaceOnUse" color-interpolation-filters="sRGB"><feFlood flood-opacity="0" result="BackgroundImageFix"/><feBlend in="SourceGraphic" in2="BackgroundImageFix" result="shape"/><feGaussianBlur stdDeviation="7" result="effect1_foregroundBlur_510_1493"/></filter><filter id="filter6_f_510_1493" x="23.382" y="30.433" width="49.718" height="30.297" filterUnits="userSpaceOnUse" color-interpolation-filters="sRGB"><feFlood flood-opacity="0" result="BackgroundImageFix"/><feBlend in="SourceGraphic" in2="BackgroundImageFix" result="shape"/><feGaussianBlur stdDeviation="7" result="effect1_foregroundBlur_510_1493"/></filter><filter id="filter7_f_510_1493" x="38.813" y="18.374" width="49.718" height="30.297" filterUnits="userSpaceOnUse" color-interpolation-filters="sRGB"><feFlood flood-opacity="0" result="BackgroundImageFix"/><feBlend in="SourceGraphic" in2="BackgroundImageFix" result="shape"/><feGaussianBlur stdDeviation="7" result="effect1_foregroundBlur_510_1493"/></filter><filter id="filter8_f_510_1493" x=".441" y="89" width="159.44" height="57" filterUnits="userSpaceOnUse" color-interpolation-filters="sRGB"><feFlood flood-opacity="0" result="BackgroundImageFix"/><feBlend in="SourceGraphic" in2="BackgroundImageFix" result="shape"/><feGaussianBlur stdDeviation="10" result="effect1_foregroundBlur_510_1493"/></filter><linearGradient id="paint0_linear_510_1493" x1="78.816" y1="19.168" x2="83.744" y2="105.055" gradientUnits="userSpaceOnUse"><stop stop-color="#FFE380"/><stop offset="1" stop-color="#A77A06"/></linearGradient><linearGradient id="paint1_linear_510_1493" x1="108.121" y1="59.876" x2="113.099" y2="79.733" gradientUnits="userSpaceOnUse"><stop stop-color="#FFDA58"/><stop offset="1" stop-color="#E0AF32"/></linearGradient><linearGradient id="paint2_linear_510_1493" x1="108.121" y1="59.876" x2="113.099" y2="79.733" gradientUnits="userSpaceOnUse"><stop stop-color="#FFDA58"/><stop offset="1" stop-color="#E0AF32"/></linearGradient><linearGradient id="paint3_linear_510_1493" x1="110.985" y1="82.329" x2="115.445" y2="103.027" gradientUnits="userSpaceOnUse"><stop stop-color="#FFDA58"/><stop offset="1" stop-color="#E0AF32"/></linearGradient><linearGradient id="paint4_linear_510_1493" x1="110.985" y1="82.329" x2="115.445" y2="103.027" gradientUnits="userSpaceOnUse"><stop stop-color="#FFDA58"/><stop offset="1" stop-color="#E0AF32"/></linearGradient></defs></svg>