<svg width="38" height="41" fill="none" xmlns="http://www.w3.org/2000/svg"><mask id="a" fill="#fff"><path fill-rule="evenodd" clip-rule="evenodd" d="M21 35a13.98 13.98 0 003.939-.877 13.185 13.185 0 004.236-2.61 12.026 12.026 0 002.831-3.906A11.23 11.23 0 0033 23a11.23 11.23 0 00-.994-4.607 12.026 12.026 0 00-2.83-3.906 13.185 13.185 0 00-4.237-2.61A13.98 13.98 0 0021 11v24zm0-.98a12.83 12.83 0 003.533-.799 12.114 12.114 0 003.893-2.398 11.048 11.048 0 002.602-3.59A10.31 10.31 0 0031.941 23c0-1.453-.31-2.892-.913-4.234a11.048 11.048 0 00-2.601-3.589 12.114 12.114 0 00-3.894-2.398c-1.128-.431-2.32-.7-3.533-.8V34.02z"/></mask><path fill-rule="evenodd" clip-rule="evenodd" d="M21 35a13.98 13.98 0 003.939-.877 13.185 13.185 0 004.236-2.61 12.026 12.026 0 002.831-3.906A11.23 11.23 0 0033 23a11.23 11.23 0 00-.994-4.607 12.026 12.026 0 00-2.83-3.906 13.185 13.185 0 00-4.237-2.61A13.98 13.98 0 0021 11v24zm0-.98a12.83 12.83 0 003.533-.799 12.114 12.114 0 003.893-2.398 11.048 11.048 0 002.602-3.59A10.31 10.31 0 0031.941 23c0-1.453-.31-2.892-.913-4.234a11.048 11.048 0 00-2.601-3.589 12.114 12.114 0 00-3.894-2.398c-1.128-.431-2.32-.7-3.533-.8V34.02z" fill="#000"/><path d="M21 35h-3v3.233l3.224-.241L21 35zm3.939-.877l-1.07-2.802 1.07 2.802zm4.236-2.61l2.034 2.206-2.034-2.206zm2.831-3.906l2.736 1.23-2.736-1.23zm-7.067-15.73l-1.07 2.802 1.07-2.802zM24 11a3 3 0 10-6 0h6zm-3 23.02h-3 3zm3.533-.799l-1.07-2.802 1.07 2.802zm3.893-2.398l2.034 2.206-2.034-2.206zm2.602-3.59l-2.737-1.229 2.737 1.23zm0-8.467l-2.737 1.23 2.737-1.23zm-6.495-5.987l1.07-2.803-1.07 2.803zm-3.533-.8l.244-2.99L18 8.726v3.255h3zm.224 26.013a16.98 16.98 0 004.785-1.066l-2.14-5.605c-.983.375-2.027.607-3.093.687l.448 5.984zm4.785-1.066a16.183 16.183 0 005.2-3.207l-4.067-4.411a10.186 10.186 0 01-3.274 2.013l2.14 5.605zm5.2-3.207a15.026 15.026 0 003.534-4.882l-5.474-2.46a9.027 9.027 0 01-2.127 2.93l4.067 4.412zm3.534-4.882A14.23 14.23 0 0036 23h-6a8.23 8.23 0 01-.73 3.378l5.473 2.459zM36 23c0-2.01-.43-3.995-1.258-5.837l-5.472 2.46A8.23 8.23 0 0130 23h6zm-1.258-5.837a15.026 15.026 0 00-3.533-4.882l-4.067 4.411a9.027 9.027 0 012.128 2.93l5.473-2.459zm-3.533-4.882a16.184 16.184 0 00-5.2-3.207l-2.14 5.605a10.186 10.186 0 013.273 2.013l4.067-4.411zm-5.2-3.207a16.977 16.977 0 00-4.785-1.066l-.448 5.984c1.066.08 2.11.312 3.092.687l2.14-5.605zm-4.785-1.066c2.768 3.216-.448 5.984-.448 5.984s-2.768-3.216.448-5.984l-.448 5.984c3.216-2.768.448-5.984.448-5.984s-3.216 2.768-.448 5.984l.448-5.984zM18 11v23.02h6V11h-6zm0 23.02V35h6v-.98h-6zm3.244 2.99a15.835 15.835 0 004.36-.986l-2.14-5.605a9.841 9.841 0 01-2.708.611l.488 5.98zm4.36-.986a15.116 15.116 0 004.856-2.995l-4.067-4.412a9.115 9.115 0 01-2.93 1.802l2.14 5.605zm4.856-2.995a14.05 14.05 0 003.304-4.566l-5.473-2.459a8.05 8.05 0 01-1.898 2.613l4.067 4.412zm3.304-4.566A13.318 13.318 0 0034.941 23h-6a7.318 7.318 0 01-.65 3.004l5.473 2.46zM34.941 23c0-1.882-.402-3.74-1.177-5.463l-5.473 2.459c.432.96.65 1.98.65 3.004h6zm-1.177-5.463a14.05 14.05 0 00-3.304-4.566l-4.067 4.412a8.05 8.05 0 011.898 2.613l5.473-2.46zM30.46 12.97a15.116 15.116 0 00-4.856-2.995l-2.14 5.605a9.115 9.115 0 012.929 1.802l4.067-4.412zm-4.856-2.995a15.839 15.839 0 00-4.36-.986l-.488 5.98a9.841 9.841 0 012.707.611l2.14-5.605zM18 11.98v22.04h6V11.98h-6z" fill="url(#paint0_linear_523_192)" mask="url(#a)"/><path d="M18.444 11.547V23.21l6.223 5.054" stroke="url(#paint1_linear_523_192)" stroke-width="2" stroke-linecap="round"/><path fill="#000" stroke="url(#paint2_linear_523_192)" stroke-width=".597" stroke-linecap="round" d="M12.077 9.856h.736v.597h-.736z"/><path fill="#000" stroke="url(#paint3_linear_523_192)" stroke-width=".597" stroke-linecap="round" d="M5.854 14.234h.736v.597h-.736z"/><path fill="#000" stroke="url(#paint4_linear_523_192)" stroke-width=".597" stroke-linecap="round" d="M2.743 22.99h.736v.597h-.736z"/><path fill="#000" stroke="url(#paint5_linear_523_192)" stroke-width=".597" stroke-linecap="round" d="M12.077 34.93h.736v.597h-.736z"/><path fill="#000" stroke="url(#paint6_linear_523_192)" stroke-width=".597" stroke-linecap="round" d="M5.854 30.95h.736v.597h-.736z"/><path d="M18.444 5.975V3.388m0 0h-3.111v0A2.388 2.388 0 0117.721 1h1.224a2.388 2.388 0 012.388 2.388v0h-2.889z" stroke="url(#paint7_linear_523_192)" stroke-width="2" stroke-linecap="round"/><path d="M28.694 8.64l1.333-2.068m-2.25-1.194l4.56 2.388" stroke="url(#paint8_linear_523_192)" stroke-width="2" stroke-linecap="round"/><path d="M8.325 8.242L6.99 6.174M9.24 4.98L4.68 7.368" stroke="url(#paint9_linear_523_192)" stroke-width="2" stroke-linecap="round"/><path d="M37 23c0 9.339-8.007 17-18 17S1 32.339 1 23 9.007 6 19 6s18 7.661 18 17z" stroke="url(#paint10_linear_523_192)" stroke-width="2" stroke-linecap="round"/><defs><linearGradient id="paint0_linear_523_192" x1="25.986" y1="11" x2="39.32" y2="34.722" gradientUnits="userSpaceOnUse"><stop stop-color="#FFDA58"/><stop offset="1" stop-color="#E0AF32"/></linearGradient><linearGradient id="paint1_linear_523_192" x1="21.03" y1="11.547" x2="31.486" y2="25.395" gradientUnits="userSpaceOnUse"><stop stop-color="#FFDA58"/><stop offset="1" stop-color="#E0AF32"/></linearGradient><linearGradient id="paint2_linear_523_192" x1="12.332" y1="9.557" x2="12.7" y2="11.018" gradientUnits="userSpaceOnUse"><stop stop-color="#FFDA58"/><stop offset="1" stop-color="#E0AF32"/></linearGradient><linearGradient id="paint3_linear_523_192" x1="6.11" y1="13.935" x2="6.477" y2="15.396" gradientUnits="userSpaceOnUse"><stop stop-color="#FFDA58"/><stop offset="1" stop-color="#E0AF32"/></linearGradient><linearGradient id="paint4_linear_523_192" x1="2.998" y1="22.692" x2="3.366" y2="24.152" gradientUnits="userSpaceOnUse"><stop stop-color="#FFDA58"/><stop offset="1" stop-color="#E0AF32"/></linearGradient><linearGradient id="paint5_linear_523_192" x1="12.332" y1="34.632" x2="12.7" y2="36.092" gradientUnits="userSpaceOnUse"><stop stop-color="#FFDA58"/><stop offset="1" stop-color="#E0AF32"/></linearGradient><linearGradient id="paint6_linear_523_192" x1="6.11" y1="30.652" x2="6.477" y2="32.112" gradientUnits="userSpaceOnUse"><stop stop-color="#FFDA58"/><stop offset="1" stop-color="#E0AF32"/></linearGradient><linearGradient id="paint7_linear_523_192" x1="17.826" y1="1" x2="19.256" y2="7.138" gradientUnits="userSpaceOnUse"><stop stop-color="#FFDA58"/><stop offset="1" stop-color="#E0AF32"/></linearGradient><linearGradient id="paint8_linear_523_192" x1="29.678" y1="6.361" x2="28.613" y2="9.328" gradientUnits="userSpaceOnUse"><stop stop-color="#FFDA58"/><stop offset="1" stop-color="#E0AF32"/></linearGradient><linearGradient id="paint9_linear_523_192" x1="7.341" y1="5.963" x2="8.405" y2="8.93" gradientUnits="userSpaceOnUse"><stop stop-color="#FFDA58"/><stop offset="1" stop-color="#E0AF32"/></linearGradient><linearGradient id="paint10_linear_523_192" x1="15.789" y1="5" x2="27.431" y2="48.725" gradientUnits="userSpaceOnUse"><stop stop-color="#FFDA58"/><stop offset="1" stop-color="#E0AF32"/></linearGradient></defs></svg>